<?xml version="1.0" standalone="no"?>
<!DOCTYPE svg PUBLIC "-//W3C//DTD SVG 20010904//EN"
 "http://www.w3.org/TR/2001/REC-SVG-20010904/DTD/svg10.dtd">
<svg version="1.0" xmlns="http://www.w3.org/2000/svg"
 width="200.000000pt" height="200.000000pt" viewBox="0 0 200.000000 200.000000"
 preserveAspectRatio="xMidYMid meet">
<metadata>
Created by potrace 1.16, written by Peter Selinger 2001-2019
</metadata>
<g transform="translate(0.000000,200.000000) scale(0.100000,-0.100000)"
fill="#000000" stroke="none">
<path d="M637 1173 c-3 -5 -15 -41 -27 -82 -12 -40 -24 -80 -27 -87 -3 -10 3
-14 20 -14 17 0 28 7 32 20 5 14 15 20 37 20 21 0 31 -6 35 -20 3 -13 14 -20
29 -20 13 0 24 2 24 6 0 3 -12 45 -27 95 -26 88 -27 89 -59 89 -18 0 -35 -3
-37 -7z"/>
<path d="M1220 1168 c0 -6 12 -49 27 -95 26 -80 28 -83 58 -83 30 0 31 2 62
96 l32 95 -26 -3 c-22 -2 -29 -12 -45 -57 -10 -30 -20 -56 -23 -59 -2 -2 -12
23 -21 57 -15 52 -21 61 -41 61 -12 0 -23 -5 -23 -12z"/>
<path d="M810 1127 c-13 -7 -29 -25 -34 -40 -14 -39 20 -83 63 -81 17 1 31 -2
31 -6 0 -13 -37 -22 -60 -15 -16 5 -20 2 -20 -19 0 -23 4 -26 39 -26 66 0 85
24 89 114 l4 76 -30 0 c-17 0 -36 2 -44 5 -7 3 -24 -1 -38 -8z"/>
<path d="M1091 1127 c-54 -27 -48 -116 10 -136 54 -19 99 13 99 70 0 29 -6 42
-26 58 -31 24 -49 26 -83 8z"/>
<path d="M1434 1130 c-30 -12 -46 -62 -33 -99 12 -34 45 -48 102 -43 l37 3 0
70 c0 65 -1 69 -22 69 -13 0 -32 2 -43 5 -11 2 -30 0 -41 -5z"/>
<path d="M1675 1115 c-40 -39 -32 -96 17 -121 53 -28 108 6 108 67 0 70 -77
103 -125 54z"/>
</g>
</svg>
